<?xml version="1.0" encoding="UTF-8"?>
<svg xmlns="http://www.w3.org/2000/svg" viewBox="0 0 200 128">
  <defs>
    <style>
      .cls-1 {
        fill: #fff;
      }

      .cls-2 {
        fill: #2ead8c;
      }
    </style>
  </defs>
  <g id="BG">
    <rect class="cls-1" x="0" width="200" height="128" rx="4" ry="4"/>
  </g>
  <g id="LOGOS">
    <g>
      <path class="cls-2" d="m30.69,80.53c-2.12,0-4.23,0-6.35,0-.42,0-.56-.13-.56-.55.02-1.6.02-3.19,0-4.79,0-.42.13-.55.55-.55,3.62.01,7.24.01,10.86,0,1.74,0,3.32-.58,4.78-1.5.67-.42,1.34-.86,1.92-1.44,1.86-1.88,3-4.09,3.25-6.72.16-1.76-.12-3.46-.82-5.1-1.25-2.9-3.4-4.84-6.34-5.93-1.24-.46-2.55-.61-3.87-.61-3.23-.01-6.45,0-9.68,0-.63,0-.63,0-.63-.63,0-1.55,0-3.11,0-4.66,0-.58,0-.58.59-.58,3.93,0,7.85-.07,11.78.02,4.66.11,8.8,1.59,12.12,5,1.92,1.98,3.29,4.25,4.04,6.92.61,2.16.79,4.34.56,6.54-.15,1.47-.55,2.9-1.14,4.27-1.16,2.68-2.76,5.05-5.14,6.8-1.49,1.1-3.11,2-4.9,2.56-.42.13-.82.29-1.25.41-1.66.45-3.36.52-5.07.51-1.56,0-3.12,0-4.68,0Z"/>
      <path class="cls-2" d="m60.56,64.59c0-3.56,0-7.11,0-10.67,0-.67-.03-1.33-.06-2-.02-.37.13-.52.51-.52,2.64.01,5.28-.04,7.92.03,1.89.05,3.75.38,5.49,1.16,3.01,1.36,4.77,3.74,5.54,6.88.57,2.31.55,4.66.31,7.01-.2,1.95-.74,3.79-1.78,5.46-1.07,1.72-2.58,2.93-4.48,3.67-1.7.66-3.45.91-5.26.95-2.52.06-5.05,0-7.57.06-.6.01-.61,0-.61-.61,0-3.8,0-7.61,0-11.41h0Zm4.68-.53c0,2.55,0,5.11,0,7.66,0,.38.12.51.51.5,1.41-.03,2.83.04,4.24-.09,1.45-.13,2.78-.51,3.81-1.61.8-.85,1.19-1.89,1.39-3,.39-2.23.42-4.48.05-6.71-.48-2.88-2.13-4.49-4.96-4.9-1.45-.21-2.91-.11-4.37-.11-.6,0-.66.05-.66.64,0,2.54,0,5.08,0,7.62Z"/>
      <path class="cls-2" d="m126.64,67.54c0,1.45.01,2.9,0,4.35-.02,2.23-1.01,3.64-3.1,4.47-.85.33-1.73.52-2.64.51-1.24-.02-2.48.08-3.72-.07-2.25-.27-4.29-1.7-4.87-4.07-.56-2.32-.08-4.33,1.7-5.94,1.15-1.04,2.62-1.42,4.13-1.62,1.1-.14,2.19-.31,3.3-.37.39-.02.56-.21.53-.62-.03-.45-.03-.9-.1-1.34-.09-.5-.36-.84-.82-1.04-.5-.22-1.04-.3-1.57-.33-1.76-.07-3.49.07-5.18.64-.6.2-.66.14-.66-.47,0-.91,0-1.83,0-2.74,0-.34.12-.52.44-.65,2.25-.9,4.57-1.28,6.98-1,1.38.16,2.69.54,3.77,1.48,1.29,1.12,1.76,2.6,1.8,4.24.03,1.52,0,3.05,0,4.57,0,0,0,0,0,0Zm-4.68,2.59c0-.3-.02-.61,0-.91.02-.34-.12-.46-.46-.45-1.02.03-2.03.13-3.03.34-1.12.24-1.51.66-1.56,1.8-.06,1.13.64,1.89,1.77,1.92.78.02,1.54-.09,2.29-.28.51-.13.81-.46.91-.99.09-.48.08-.95.08-1.43Z"/>
      <path class="cls-2" d="m96.69,67.61c0,1.45-.01,2.9,0,4.35.02,2.07-1,3.46-2.84,4.29-.9.41-1.85.63-2.84.61-1.25-.02-2.51.07-3.76-.07-3.11-.36-5.02-2.63-5.06-5.24-.03-1.48.16-2.87,1.15-4.05,1.11-1.33,2.61-1.98,4.28-2.25,1.29-.21,2.6-.36,3.9-.52.36-.04.5-.2.51-.56.06-2.01-.54-2.65-2.56-2.72-1.73-.06-3.44.09-5.09.64-.62.21-.68.15-.68-.49,0-.93,0-1.86,0-2.79,0-.26.07-.44.33-.54,2.78-1.09,5.62-1.52,8.56-.73,2.72.74,3.96,2.63,4.1,5.25.08,1.59.02,3.19.02,4.79h0Zm-4.66,2.5c0-.32-.02-.64,0-.96.03-.3-.09-.38-.37-.38-1.04.02-2.07.08-3.08.34-1.27.32-1.66.82-1.65,2.13,0,.86.52,1.48,1.38,1.58.95.11,1.89.03,2.81-.28.38-.13.62-.4.75-.79.18-.54.14-1.09.15-1.64Z"/>
      <path class="cls-2" d="m154.84,67.58c0,1.52,0,3.05,0,4.57.01,1.77-.86,3.01-2.34,3.85-1.01.58-2.13.87-3.31.86-1.27-.01-2.54.08-3.8-.07-3.07-.37-5.06-2.61-5.04-5.34,0-.8,0-1.6.27-2.36.62-1.72,1.87-2.79,3.56-3.42,1.15-.43,2.36-.5,3.56-.68.66-.1,1.33-.19,1.99-.26.31-.03.44-.18.44-.48,0-.12,0-.23,0-.35,0-1.77-.59-2.38-2.38-2.44-1.79-.07-3.55.07-5.27.63-.64.21-.69.16-.69-.51,0-.91,0-1.83,0-2.74,0-.26.07-.44.33-.55,2.65-1.05,5.36-1.47,8.18-.85,1.67.37,3.04,1.19,3.85,2.75.42.81.64,1.69.65,2.6.02,1.6,0,3.19,0,4.79Zm-7.52,5.27c.22-.01.5-.01.78-.05.26-.03.52-.08.77-.15.94-.24,1.26-.63,1.3-1.59.03-.67-.04-1.33.05-2,.04-.28-.15-.29-.36-.3-.67-.01-1.34.05-2,.13-.62.07-1.24.17-1.82.44-.74.35-1.03,1.03-.93,2.11.06.65.5,1.13,1.2,1.33.31.09.64.06,1.01.07Z"/>
      <path class="cls-2" d="m170.06,60.79c0,.52,0,1.05,0,1.57,0,.5-.05.53-.48.29-1.95-1.05-4.04-1.37-6.22-1.09-.85.11-1.14.38-1.29,1.07-.12.54.13,1.09.62,1.37.58.32,1.22.48,1.85.65,1.21.33,2.42.64,3.56,1.19,1.85.9,2.73,2.38,2.87,4.39.11,1.49-.18,2.86-1.03,4.09-.89,1.28-2.18,1.97-3.66,2.27-2.91.58-5.71.27-8.38-1.07-.37-.19-.54-.43-.54-.85.01-1,0-2,0-3.01,0-.48.08-.53.55-.34,1.2.47,2.39.94,3.68,1.1,1.07.13,2.15.23,3.22.04.23-.04.46-.11.67-.19.43-.17.83-.4.87-.93.05-.62-.06-1.18-.65-1.56-.8-.52-1.73-.7-2.62-.93-.98-.26-1.94-.53-2.82-1.03-2.09-1.19-2.86-3.04-2.69-5.35.23-3.25,2.75-5,5.75-5.26,1.79-.15,3.52.03,5.21.62,1.52.52,1.55.55,1.55,2.16,0,.26,0,.52,0,.78h0Z"/>
      <path class="cls-2" d="m135.3,69.16c0,2.28,0,4.56,0,6.84,0,.59-.01.62-.62.6-1.17-.03-2.33-.02-3.5,0-.54.01-.57-.02-.57-.56,0-4.56,0-9.11,0-13.67q0-.65-.65-.66c-.47,0-.93,0-1.4,0-.33,0-.48-.12-.48-.46,0-1.09.01-2.18,0-3.27,0-.36.15-.5.5-.49.51.01,1.02-.02,1.53,0,.38.02.52-.11.51-.49-.02-.87-.01-1.73.17-2.6.56-2.6,2.08-4.08,4.71-4.64,1.62-.35,3.16-.1,4.67.46.7.26.74.36.73,1.1,0,.78,0,1.57,0,2.35,0,.5-.04.54-.52.46-1.02-.17-2.03-.35-3.08-.31-1.41.05-1.82.68-1.99,1.89-.06.43,0,.87-.01,1.3,0,.34.15.46.48.46.99,0,1.98.01,2.98,0,.39,0,.53.11.51.53-.04,1.04-.03,2.09-.02,3.13,0,.39-.13.55-.53.55-.96-.01-1.93.01-2.89,0-.39,0-.54.13-.54.53.01,2.31,0,4.61,0,6.92h0Z"/>
      <path class="cls-2" d="m101.11,67.35c0-1.55,0-3.11,0-4.66,0-.16-.01-.32-.02-.48-.02-.35-.17-.52-.55-.5-.51.02-1.02,0-1.53,0-.29,0-.42-.13-.42-.42,0-1.12,0-2.24,0-3.35,0-.33.16-.44.46-.43.5,0,.99-.02,1.49,0,.34.01.5-.1.53-.46.09-1,.03-2,.04-3,0-.65,0-.65.65-.65,1.17,0,2.33.01,3.5,0,.38,0,.52.12.52.5-.01,1.03.01,2.06,0,3.09,0,.39.11.54.52.53,1.09-.02,2.19,0,3.28,0,.37,0,.52.11.51.5-.02,1.07-.01,2.15,0,3.22,0,.36-.13.49-.49.49-1.11-.01-2.22.01-3.33,0-.38,0-.51.12-.51.5.01,3.08,0,6.15.02,9.23,0,.93.22,1.1,1.14,1.13,1.02.03,2.01-.07,2.97-.4.47-.16.53-.1.53.4,0,.89,0,1.77,0,2.66,0,.28-.06.53-.33.66-2.24,1.14-4.53,1.33-6.79.12-1.49-.8-2.15-2.17-2.18-3.82-.03-1.61,0-3.22,0-4.83h-.02Z"/>
      <path class="cls-2" d="m174.67,67.39c0-1.63,0-3.25,0-4.88,0-.75-.06-.79-.79-.79-.42,0-.85,0-1.27,0-.31,0-.48-.12-.45-.44.1-1.12.05-2.23,0-3.35-.01-.29.12-.43.42-.43.5,0,.99-.03,1.49,0,.42.03.59-.16.59-.55.01-.96.02-1.92.02-2.87,0-.69,0-.69.67-.69,1.12,0,2.25,0,3.37,0,.61,0,.62,0,.62.6,0,.97,0,1.94.01,2.92,0,.58,0,.59.58.59,1.05,0,2.1,0,3.15,0,.55,0,.57.03.57.56,0,1.04,0,2.09,0,3.13,0,.37-.12.52-.5.52-1.11-.01-2.22,0-3.33,0-.36,0-.49.11-.49.47.01,3.11,0,6.21.02,9.32,0,.84.24,1.05,1.07,1.07,1.04.03,2.07-.05,3.06-.4.44-.16.51-.09.51.38,0,.89,0,1.77,0,2.66,0,.37-.13.6-.46.76-1.97.97-3.99,1.14-6.06.36-1.7-.64-2.77-2.24-2.79-4.15-.02-1.6,0-3.19,0-4.79,0,0-.01,0-.02,0Z"/>
      <path class="cls-2" d="m27.68,68.87c-2.23,0-4.46,0-6.7,0-.62,0-.95-.24-1.07-.75-.13-.52.17-1.01.7-1.12.2-.04.41-.06.61-.06,4.29,0,8.58,0,12.87,0,.42,0,.86,0,1.13.42.19.29.32.6.13.94-.19.35-.44.59-.89.59-1.82-.01-3.65,0-5.47,0-.44,0-.88,0-1.31,0h0Z"/>
      <path class="cls-2" d="m23.77,70.82c2.2,0,4.41,0,6.61,0,.22,0,.43-.01.63.12.38.25.63.7.54,1.06-.09.4-.47.72-.96.76-.38.03-.76,0-1.14,0-3.95,0-7.91,0-11.86,0-.26,0-.53-.02-.78-.06-.56-.09-.84-.46-.81-1.01.03-.47.42-.84.94-.87.32-.02.64,0,.96,0,1.95,0,3.91,0,5.86,0Z"/>
      <path class="cls-2" d="m23.9,55.32c2.2,0,4.4,0,6.6,0,.71,0,1.08.4,1.03,1.05-.04.45-.45.86-.92.91-.09,0-.17,0-.26,0-4.3,0-8.6,0-12.9,0-.27,0-.52-.03-.77-.13-.49-.21-.67-.5-.63-1.02.04-.48.36-.68.77-.76.24-.05.49-.06.74-.06,2.11,0,4.23,0,6.34,0h0Z"/>
      <path class="cls-2" d="m27.68,61.12c-2.16,0-4.32,0-6.47,0-.36,0-.69-.05-.98-.29-.31-.26-.35-.6-.28-.95.07-.34.33-.55.66-.62.25-.06.52-.08.78-.08,4.23,0,8.46,0,12.68,0,.17,0,.35.01.52.05.58.11.84.43.81,1-.03.5-.41.87-.95.9-.39.02-.79,0-1.18,0-1.87,0-3.73,0-5.6,0Z"/>
      <path class="cls-2" d="m31.54,63.08c2.23,0,4.46,0,6.69,0,.68,0,1.01.26,1.09.83.08.61-.31,1.09-.94,1.1-.54,0-1.08-.05-1.62-.05-3.19,0-6.39,0-9.58,0-.83,0-1.66.13-2.49,0-.55-.08-.94-.53-.92-1.03.03-.52.42-.85,1.02-.85,2.25,0,4.49,0,6.74,0Z"/>
    </g>
  </g>
</svg>