<?xml version="1.0" encoding="UTF-8"?>
<svg xmlns="http://www.w3.org/2000/svg" viewBox="0 0 50 32">
  <defs>
    <style>
      .cls-1 {
        fill: #05d3a4;
      }

      .cls-2 {
        fill: #452557;
      }
    </style>
  </defs>
  <g id="BG">
    <rect class="cls-2" width="50" height="32" rx="4" ry="4"/>
  </g>
  <g id="LOGOS">
    <g id="deuna-logo">
      <path id="Combined-Shape-Copy-2" class="cls-1" d="M15.08,12.05c3.24,0,3.21,3.44,2.67,5.85h-4.75c-.11.77.1,1.74,1.08,1.74.6,0,1-.19,1.72-.94h0l1.44,1.56c-.33.33-.63.62-.92.85-.65.48-1.61.99-2.76.99-2.57,0-3.24-1.71-3.24-3.93,0-2.58,1.51-6.13,4.78-6.13ZM21.88,12.35l-1.35,6.4c-.03.16-.05.31-.05.44,0,.51.23.82.69.82.7,0,1.23-.77,1.45-1.86l1.2-5.8h2.61l-1.26,6.1c-.02.08-.03.16-.03.25,0,.41.31.58.78.58l-.62,2.83c-1.27,0-2.21-.36-2.62-1.48h-.03c-.47.81-1.16,1.46-2.39,1.46-1.65,0-2.47-1.09-2.47-2.63,0-.33.03-.69.11-1.05l1.26-6.05h2.7ZM32.4,12.05c1.86,0,2.37,1.7,1.98,3.62l-.57,2.78c-.11.59.09.82.65.82l-.59,2.83c-2.03-.02-3.34-1.05-2.75-3.77l.65-3c.11-.51,0-1.17-.62-1.17-1.01,0-1.32.91-1.76,3.08l-1.01,4.85h-2.7l1.68-8.06c.25-1.17.03-1.69.03-1.69h2.5c.28.24.33.47.33.9,0,0,.7-1.21,2.19-1.21ZM39.63,12.05c2.01,0,3.16,1.4,3.16,3.11,0,.28-.02.56-.08.84l-.52,2.45c-.02.08-.03.16-.03.25,0,.41.31.58.78.58l-.62,2.83c-1.01,0-2.32-.36-2.73-1.48h-.03c-.44.79-1.14,1.46-2.29,1.46-1.55,0-2.52-1.23-2.52-3.42,0-2.78,1.58-6.62,4.88-6.62ZM11.2,9.91l-1.79,8.56c-.02.08-.03.16-.03.25,0,.32.19.49.51.55h0l-.59,2.83c-1.18-.06-2.1-.5-2.49-1.45h-.03c-.44.79-1.14,1.46-2.27,1.46-1.54,0-2.5-1.23-2.5-3.4,0-3.52,2.03-6.65,4.29-6.65.75,0,1.35.57,1.56,1.16h0l.69-3.29h2.66ZM44.59,19.7c.66,0,1.19.54,1.19,1.2s-.53,1.2-1.19,1.2-1.19-.54-1.19-1.2.53-1.2,1.19-1.2ZM6.66,14.15c-1.25,0-2.05,3.22-2.05,4.63,0,.77.23,1.26.76,1.26.67,0,1.18-.66,1.41-1.74h0l.54-2.59c.19-.92-.12-1.56-.66-1.56ZM39.39,14.37c-1.26,0-2.01,2.96-2.01,4.38,0,.77.23,1.27.77,1.27.67,0,1.16-.77,1.39-1.86l.49-2.32c.03-.2.07-.36.07-.53,0-.59-.28-.94-.7-.94ZM48,9.9l-1.97,9.39h-2.75l1.47-6.95h-.76l.32-1.57c.24-.02.51-.1.76-.25.29-.17.51-.39.65-.63h2.29ZM14.88,14.2c-.69,0-1.21.81-1.5,1.79h2.16c.18-.89.03-1.79-.65-1.79Z"/>
    </g>
  </g>
</svg>
